<?xml version="1.0" encoding="utf-8"?>
<!-- Generator: Adobe Illustrator 16.0.4, SVG Export Plug-In . SVG Version: 6.00 Build 0)  -->
<!DOCTYPE svg PUBLIC "-//W3C//DTD SVG 1.1//EN" "http://www.w3.org/Graphics/SVG/1.1/DTD/svg11.dtd">
<svg version="1.1" id="Layer_1" xmlns="http://www.w3.org/2000/svg" xmlns:xlink="http://www.w3.org/1999/xlink" x="0px" y="0px"
	 width="138px" height="138px" viewBox="0 0 138 138" enable-background="new 0 0 138 138" xml:space="preserve">
<path fill="#5F5F5F" d="M116.338,65.694c0,0-70.596,0-90.041,0l3.004-2.141c22.354-12.906,71.811-43.933,71.811-43.933
	c2.059-1.191,2.761-3.824,1.576-5.878L98.387,3.149c-1.195-2.065-3.816-2.757-5.88-1.569L11.144,51.022
	c-2.055,1.191-2.75,3.827-1.569,5.885l7.792,8.442l0.062,67.104c0,2.384,1.924,4.297,4.295,4.297h94.615
	c2.375,0,4.298-1.913,4.298-4.297V70C120.637,67.618,118.713,65.694,116.338,65.694z M85.146,68.766L71.871,81.667H54.667
	l12.906-12.901H85.146z M79.543,13.336l15.268-9.795l-2.229,14.373l-15.62,10.029L79.543,13.336z M52.333,30.077l15.529-9.675
	l-2.781,14.569l-15.515,9.678L52.333,30.077z M21.382,62.287l2.595-14.61l15.415-9.85L36.777,52.42L21.382,62.287z M37.465,68.766
	h17.202l-12.9,12.901H24.566L37.465,68.766z M113.232,129.261h-88.48V88.382h88.48V129.261z M102.255,81.667H84.771l12.91-12.901
	h17.069L102.255,81.667z"/>
</svg>
